<svg width="191" height="45" viewBox="0 0 191 45" fill="none" xmlns="http://www.w3.org/2000/svg">
<path d="M99.9336 21.743V20.036H97.266V13.672H85.2459V15.3771H94.4105V20.036H82.7895V21.743H89.7514V24.2288H84.9912V25.9342H94.571V31.0005H97.4266V24.2288H92.6083V21.743H99.9336Z" fill="white"/>
<path d="M126.227 13.672V15.2041C126.227 17.459 127.097 20.8991 130.27 22.268L129.194 23.5422C129.194 23.5422 126.432 22.5919 124.851 19.669C123.268 22.5919 120.508 23.5422 120.508 23.5422L119.434 22.268C122.608 20.8991 123.479 17.459 123.479 15.2041V13.672H126.227Z" fill="white"/>
<path d="M136.916 18.6524H134.444V13.672H131.588V26.2906H134.444V20.3578H136.916V18.6524Z" fill="white"/>
<path d="M134.998 29.2957H125.89V25.3517H123.035V29.146C123.035 29.7301 123.228 30.1886 123.613 30.5145C123.998 30.8385 124.486 31.0008 125.075 31.0008H134.998V29.2957Z" fill="white"/>
<path d="M170.688 31.0052V29.2985H160.652V25.87H157.795V29.1494C157.795 29.7341 157.988 30.1905 158.372 30.5183C158.759 30.8429 159.248 31.0055 159.839 31.0055L170.688 31.0052Z" fill="white"/>
<path d="M165.403 23.1518V21.5983H170.103V13.6843H167.247V15.6696H160.636V13.6843H157.781V19.7419C157.781 20.326 157.974 20.7856 158.358 21.1121C158.743 21.4338 159.232 21.5983 159.823 21.5983H162.548V23.1518H155.538V24.8579H172.402V23.1518H165.403ZM160.636 17.376H167.247V19.8942H160.636V17.376Z" fill="white"/>
<path d="M191 23.1518H174.137V24.8579H181.142V31.0052H183.996V24.8579H191V23.1518Z" fill="white"/>
<path d="M188.696 13.6839H185.842V15.669H179.231V13.6839H176.374V19.7435C176.374 20.3285 176.568 20.7859 176.953 21.1121C177.338 21.4363 177.825 21.6021 178.417 21.6021H188.696V13.6839ZM179.231 19.8942V17.3741H185.842V19.8942H179.231Z" fill="white"/>
<path d="M146.549 22.2535L147.62 20.9702C144.651 19.0776 144.28 16.3198 144.28 14.4687V13.672H141.529V14.4687C141.529 16.3198 141.157 19.0776 138.191 20.9702L139.259 22.2535C139.259 22.2535 141.831 20.9526 142.907 18.8055C143.978 20.9526 146.549 22.2535 146.549 22.2535ZM150.372 22.3749H153.228V13.672H150.372V16.7661H147.003V18.4734H150.372V22.3749ZM147.855 22.8625C144.891 22.8625 142.485 24.839 142.485 27.2773C142.485 29.7181 144.891 31.6943 147.855 31.6943C150.822 31.6943 153.229 29.7181 153.229 27.2773C153.229 24.839 150.822 22.8625 147.855 22.8625ZM147.855 30.0493C146.41 30.0493 145.237 28.8081 145.237 27.2792C145.237 25.7486 146.41 24.5094 147.855 24.5094C149.3 24.5094 150.473 25.7483 150.473 27.2792C150.473 28.8081 149.3 30.0493 147.855 30.0493Z" fill="white"/>
<path d="M109.853 22.3265L110.918 21.0583C107.86 19.6513 107.453 15.9801 107.412 14.5769V13.672H104.692V14.5769C104.65 15.9804 104.243 19.6516 101.183 21.0583L102.247 22.3265C102.247 22.3265 104.91 21.0454 106.052 18.8055C107.193 21.0454 109.853 22.3265 109.853 22.3265ZM114.044 18.5363H115.237V22.3746H117.557V13.6717H115.237V16.8293H114.044V13.6717H111.733V22.3746H114.044V18.5363ZM112.203 22.8625C109.239 22.8625 106.832 24.839 106.832 27.2773C106.832 29.7181 109.239 31.6943 112.203 31.6943C115.169 31.6943 117.574 29.7181 117.574 27.2773C117.574 24.839 115.169 22.8625 112.203 22.8625ZM112.201 30.0493C110.756 30.0493 109.584 28.8081 109.584 27.2792C109.584 25.7486 110.756 24.5094 112.201 24.5094C113.647 24.5094 114.82 25.7483 114.82 27.2792C114.82 28.8081 113.647 30.0493 112.201 30.0493Z" fill="white"/>
<path d="M79.1591 18.6102V13.672H76.3045V26.2906H79.1591V20.3169H81.6297V18.6102H79.1591ZM70.7094 25.3517H67.8535V29.146C67.8535 29.7301 68.0489 30.1886 68.432 30.5145C68.8176 30.8385 69.3045 31.0008 69.8975 31.0008H79.7111V29.296H70.7097L70.7094 25.3517ZM74.5584 19.1434C74.5584 18.0617 74.0783 17.075 73.2954 16.3314H75.1692V14.6238H71.1473V13.1017H68.2895V14.6238H64.1309V16.3314H66.0085C65.2233 17.075 64.7455 18.0617 64.7455 19.1434C64.7455 21.4672 66.9426 23.3475 69.6508 23.3475C72.3626 23.3475 74.5584 21.4672 74.5584 19.1434ZM67.5765 19.0084C67.5765 17.5213 68.6019 16.3544 69.6395 16.3544C70.6752 16.3544 71.7013 17.5216 71.7013 19.0084C71.7013 20.4971 70.6752 21.6197 69.6395 21.6197C68.6016 21.6197 67.5765 20.4974 67.5765 19.0084Z" fill="white"/>
<path d="M5.50963 17.0482V4.89514H0V31.8406H5.50963V27.6245C7.52652 30.1968 10.88 32.0947 14.6716 32.0947C15.6031 32.0947 16.506 31.9922 17.3708 31.8044V26.5982C16.5766 26.6872 15.6812 26.736 14.6716 26.736C11.6026 26.736 9.00816 24.7207 9.00816 22.3365C9.00816 19.9517 11.6029 17.939 14.6716 17.939C15.6812 17.939 16.5766 17.9862 17.3708 18.0752V12.8699C16.506 12.6812 15.6031 12.5799 14.6716 12.5799C10.8803 12.5799 7.52652 14.4781 5.50963 17.0482Z" fill="#EE2E4B"/>
<path d="M30.0406 9.10522C32.6134 9.10522 34.7058 7.06199 34.7058 4.55072C34.7058 2.04166 32.6138 0 30.0406 0C27.4662 0 25.3726 2.04166 25.3726 4.55072C25.3726 7.06199 27.4659 9.10522 30.0406 9.10522Z" fill="#EE2E4B"/>
<path d="M30.0397 12.5805C24.5246 12.5805 20.0374 16.9561 20.0374 22.3369C20.0374 22.3576 20.039 22.3765 20.039 22.3966L20.0374 40H25.549V31.0527C26.9003 31.7173 28.4245 32.0947 30.0397 32.0947C35.5548 32.0947 40.0406 27.7183 40.0406 22.3369C40.0403 16.9561 35.5545 12.5805 30.0397 12.5805ZM30.0397 26.719C27.5623 26.719 25.549 24.7528 25.549 22.3365C25.549 19.9196 27.5623 17.9538 30.0397 17.9538C32.5157 17.9538 34.5294 19.9196 34.5294 22.3365C34.5291 24.7528 32.5154 26.719 30.0397 26.719Z" fill="#EE2E4B"/>
<path d="M53.0687 17.939C54.0783 17.939 54.9728 17.9862 55.7676 18.0752V12.8705C54.9035 12.6828 53.9993 12.5805 53.0687 12.5805C46.9171 12.5805 41.9128 16.9561 41.9128 22.3369C41.9128 27.7183 46.9171 32.0947 53.0687 32.0947C53.9993 32.0947 54.9035 31.9922 55.7676 31.8044V26.5982C54.9728 26.6872 54.0783 26.736 53.0687 26.736C49.9987 26.736 47.4053 24.7207 47.4053 22.3365C47.405 19.953 49.9984 17.939 53.0687 17.939Z" fill="#EE2E4B"/>
</svg>
